<svg width="12" height="12" viewBox="0 0 12 12" fill="none" xmlns="http://www.w3.org/2000/svg">
<g clip-path="url(#clip0_1_3)">
<path d="M6.70598 6.70597H10.6567C10.8416 6.70249 11.0177 6.62667 11.1473 6.49478C11.2769 6.36289 11.3496 6.18544 11.3498 6.00054C11.3501 5.81564 11.2778 5.63802 11.1485 5.50582C11.0192 5.37362 10.8433 5.29737 10.6584 5.29345L6.70485 5.29515L6.70994 1.34044C6.71146 1.24662 6.6943 1.15343 6.65945 1.0663C6.62459 0.979177 6.57275 0.899858 6.50694 0.832969C6.44113 0.76608 6.36266 0.712957 6.27611 0.676695C6.18957 0.640434 6.09667 0.62176 6.00283 0.62176C5.90899 0.62176 5.81609 0.640434 5.72955 0.676695C5.643 0.712957 5.56453 0.76608 5.49872 0.832969C5.43291 0.899858 5.38107 0.979177 5.34622 1.0663C5.31136 1.15343 5.2942 1.24662 5.29572 1.34044L5.29516 5.29515L1.33988 5.29062C1.15434 5.29364 0.977408 5.36946 0.847258 5.50174C0.717108 5.63402 0.644167 5.81216 0.644167 5.99773C0.644167 6.1833 0.717108 6.36144 0.847258 6.49372C0.977408 6.626 1.15434 6.70182 1.33988 6.70484L5.29063 6.70936V10.6601C5.29365 10.8457 5.36947 11.0226 5.50175 11.1527C5.63403 11.2829 5.81217 11.3558 5.99774 11.3558C6.18331 11.3558 6.36145 11.2829 6.49373 11.1527C6.62601 11.0226 6.70183 10.8457 6.70485 10.6601L6.70598 6.70597Z" fill="#707070"/>
</g>
<defs>
<clipPath id="clip0_1_3">
<rect width="8" height="8" fill="white" transform="translate(6 0.34314) rotate(45)"/>
</clipPath>
</defs>
</svg>
